<?xml version="1.0" standalone="no"?>
<!DOCTYPE svg PUBLIC "-//W3C//DTD SVG 20010904//EN"
 "http://www.w3.org/TR/2001/REC-SVG-20010904/DTD/svg10.dtd">
<svg version="1.0" xmlns="http://www.w3.org/2000/svg"
 width="500.000000pt" height="500.000000pt" viewBox="0 0 500.000000 500.000000"
 preserveAspectRatio="xMidYMid meet">

<g transform="translate(0.000000,500.000000) scale(0.100000,-0.100000)"
fill="#F40702" stroke="none">
<path d="M813 3596 c-178 -45 -317 -178 -391 -374 -22 -58 -26 -83 -26 -187
-1 -100 3 -132 22 -190 28 -82 85 -199 142 -289 l41 -65 53 25 c67 31 171 44
261 33 145 -18 276 -115 342 -255 33 -69 38 -90 41 -170 5 -102 -12 -179 -55
-253 l-26 -44 30 -26 c102 -87 255 -211 261 -211 21 0 362 299 512 450 324
324 500 567 581 805 20 58 24 89 24 185 -1 98 -5 126 -27 188 -124 344 -454
484 -777 330 -96 -46 -205 -158 -259 -267 -23 -46 -42 -90 -42 -97 0 -30 -17
-12 -34 37 -26 72 -104 187 -162 238 -114 101 -213 141 -359 147 -63 2 -119
-1 -152 -10z m1352 -61 c108 -23 183 -65 258 -144 75 -80 118 -161 148 -281
20 -75 21 -94 11 -160 -33 -233 -190 -483 -507 -808 -185 -191 -516 -484 -530
-470 -7 7 30 185 56 273 24 78 55 145 104 220 22 34 35 68 39 105 4 30 15 89
26 130 10 41 28 116 41 165 26 105 70 218 96 247 15 17 25 19 63 13 25 -4 60
-9 78 -10 18 -2 46 -8 63 -15 24 -10 40 -9 95 6 58 17 70 25 95 61 16 23 29
46 29 51 0 4 -42 37 -94 73 -94 64 -116 89 -116 133 0 19 -17 34 -90 77 -55
32 -90 60 -90 70 0 9 9 42 20 74 11 32 20 67 20 78 0 17 -4 15 -32 -12 -17
-17 -58 -50 -90 -73 -32 -23 -58 -46 -58 -50 0 -4 -16 -10 -37 -14 -43 -8
-186 -112 -207 -152 -14 -25 -15 -26 -16 -5 -1 63 85 208 168 285 73 67 164
116 250 133 89 17 124 17 207 0z m-310 -312 c-3 -70 -23 -159 -24 -110 -1 10
-5 15 -11 12 -6 -4 -10 6 -10 22 0 22 -2 25 -10 13 -8 -12 -10 -13 -10 -1 0 8
7 23 17 33 15 17 15 18 -2 18 -17 0 -17 1 -1 19 10 11 15 24 12 30 -5 7 28 41
40 41 1 0 0 -35 -1 -77z m173 -45 c29 -17 51 -32 48 -35 -2 -2 -13 0 -23 6
-15 7 -26 5 -49 -10 l-29 -20 38 7 c46 8 49 -9 5 -32 -23 -12 -45 -15 -82 -10
-51 6 -88 25 -50 27 18 0 18 1 -1 9 -19 8 -19 9 3 9 24 1 30 16 10 24 -7 3 -4
6 7 6 17 1 17 3 5 11 -12 8 -12 10 5 10 17 0 17 2 5 10 -13 8 -12 10 3 10 11
0 15 5 11 11 -10 17 32 2 94 -33z m-301 -90 c-3 -7 -5 -2 -5 12 0 14 2 19 5
13 2 -7 2 -19 0 -25z m30 -10 c-3 -8 -6 -5 -6 6 -1 11 2 17 5 13 3 -3 4 -12 1
-19z m343 -5 c0 -10 19 -30 43 -45 52 -33 103 -86 109 -114 4 -17 1 -21 -17
-21 -17 0 -22 4 -18 16 3 12 0 11 -12 -4 -17 -20 -17 -20 -11 1 5 17 2 21 -16
20 -15 -1 -24 -9 -28 -25 -5 -21 -7 -22 -19 -7 -16 19 -35 22 -25 4 6 -10 4
-10 -7 0 -15 14 -33 17 -25 4 3 -5 -9 -9 -26 -9 -18 0 -34 -5 -36 -11 -2 -6
-10 -8 -18 -5 -8 3 -14 1 -14 -5 0 -6 -9 -8 -20 -5 -23 6 -27 23 -6 23 7 0 16
8 18 18 3 11 22 31 41 47 38 28 40 28 109 0 12 -5 16 -2 13 12 -1 10 -8 17
-13 16 -7 -2 -9 4 -5 13 5 13 2 15 -18 9 -21 -7 -22 -6 -10 9 17 20 7 34 -12
17 -11 -8 -23 -8 -52 2 -45 16 -33 31 13 18 34 -10 42 -6 42 21 0 10 5 18 10
18 6 0 10 -8 10 -17z m-180 -7 c0 -2 -7 -6 -15 -10 -8 -3 -15 -1 -15 4 0 6 7
10 15 10 8 0 15 -2 15 -4z m7 -32 c-3 -3 -12 -4 -19 -1 -8 3 -5 6 6 6 11 1 17
-2 13 -5z m-60 -20 c-3 -3 -12 -4 -19 -1 -8 3 -5 6 6 6 11 1 17 -2 13 -5z
m-276 -31 c-12 -20 -14 -14 -5 12 4 9 9 14 11 11 3 -2 0 -13 -6 -23z m176 5
c-3 -8 -6 -5 -6 6 -1 11 2 17 5 13 3 -3 4 -12 1 -19z m138 12 c3 -5 -1 -10
-10 -10 -9 0 -13 5 -10 10 3 6 8 10 10 10 2 0 7 -4 10 -10z m78 3 c-7 -2 -19
-2 -25 0 -7 3 -2 5 12 5 14 0 19 -2 13 -5z m-296 -45 c-3 -7 -5 -2 -5 12 0 14
2 19 5 13 2 -7 2 -19 0 -25z m280 26 c24 -7 22 -24 -3 -24 -9 0 -12 5 -8 12 5
8 2 9 -9 5 -10 -3 -17 -2 -17 3 0 11 6 12 37 4z m-80 -10 c-3 -3 -12 -4 -19
-1 -8 3 -5 6 6 6 11 1 17 -2 13 -5z m-251 -31 c-10 -10 -19 5 -10 18 6 11 8
11 12 0 2 -7 1 -15 -2 -18z m81 -5 c-3 -7 -5 -2 -5 12 0 14 2 19 5 13 2 -7 2
-19 0 -25z m203 28 c0 -3 -4 -8 -10 -11 -5 -3 -10 -1 -10 4 0 6 5 11 10 11 6
0 10 -2 10 -4z m30 -26 c0 -5 -7 -10 -15 -10 -8 0 -15 -4 -15 -10 0 -5 -8 -10
-17 -10 -13 0 -9 6 12 20 35 23 35 23 35 10z m-173 -22 c-3 -8 -6 -5 -6 6 -1
11 2 17 5 13 3 -3 4 -12 1 -19z m90 -14 c-3 -3 -12 -4 -19 -1 -8 3 -5 6 6 6
11 1 17 -2 13 -5z m-300 -26 c-3 -8 -6 -5 -6 6 -1 11 2 17 5 13 3 -3 4 -12 1
-19z m338 14 c-18 -15 -65 -32 -65 -23 0 5 12 14 28 19 35 13 49 15 37 4z
m-285 -22 c0 -5 -4 -10 -10 -10 -5 0 -10 5 -10 10 0 6 5 10 10 10 6 0 10 -4
10 -10z m80 -12 c0 -16 -3 -19 -11 -11 -6 6 -8 16 -5 22 11 17 16 13 16 -11z
m405 12 c3 -5 1 -10 -4 -10 -6 0 -11 5 -11 10 0 6 2 10 4 10 3 0 8 -4 11 -10z
m-348 -32 c-3 -8 -6 -5 -6 6 -1 11 2 17 5 13 3 -3 4 -12 1 -19z m111 -23 c-34
-29 -54 -66 -27 -49 8 4 9 -1 4 -17 -15 -47 -32 -81 -37 -73 -3 7 -3 101 1
137 1 10 84 47 91 40 3 -3 -12 -20 -32 -38z m-78 -1 c0 -8 -5 -12 -10 -9 -6 4
-8 11 -5 16 9 14 15 11 15 -7z m-220 -24 c0 -11 -4 -20 -9 -20 -5 0 -7 9 -4
20 3 11 7 20 9 20 2 0 4 -9 4 -20z m57 -2 c-3 -8 -6 -5 -6 6 -1 11 2 17 5 13
3 -3 4 -12 1 -19z m-17 -37 c0 -6 -4 -13 -10 -16 -5 -3 -10 1 -10 9 0 9 5 16
10 16 6 0 10 -4 10 -9z m87 -23 c-3 -7 -5 -2 -5 12 0 14 2 19 5 13 2 -7 2 -19
0 -25z m40 0 c-3 -7 -5 -2 -5 12 0 14 2 19 5 13 2 -7 2 -19 0 -25z m-82 13 c3
-5 1 -12 -5 -16 -5 -3 -10 1 -10 9 0 18 6 21 15 7z m112 -33 c-3 -7 -5 -2 -5
12 0 14 2 19 5 13 2 -7 2 -19 0 -25z m-151 -34 c-4 -9 -9 -15 -11 -12 -3 3 -3
13 1 22 4 9 9 15 11 12 3 -3 3 -13 -1 -22z m-55 -17 c-10 -9 -11 -8 -5 6 3 10
9 15 12 12 3 -3 0 -11 -7 -18z m106 -19 c-3 -8 -6 -5 -6 6 -1 11 2 17 5 13 3
-3 4 -12 1 -19z m66 3 c2 -10 1 -25 -4 -32 -6 -10 -9 -4 -9 19 0 36 5 42 13
13z m-106 -33 c-3 -7 -5 -2 -5 12 0 14 2 19 5 13 2 -7 2 -19 0 -25z m60 0 c-3
-8 -6 -5 -6 6 -1 11 2 17 5 13 3 -3 4 -12 1 -19z m93 -8 c0 -10 -4 -22 -10
-25 -6 -4 -10 7 -10 25 0 18 4 29 10 25 6 -3 10 -15 10 -25z m-103 -52 c-3 -8
-6 -5 -6 6 -1 11 2 17 5 13 3 -3 4 -12 1 -19z m53 -24 c0 -14 -4 -23 -10 -19
-5 3 -10 15 -10 26 0 10 5 19 10 19 6 0 10 -12 10 -26z m27 -36 c-3 -7 -5 -2
-5 12 0 14 2 19 5 13 2 -7 2 -19 0 -25z m-189 -14 c-4 -3 -12 5 -18 18 -12 22
-12 22 6 6 10 -10 15 -20 12 -24z m86 -50 c3 -8 2 -12 -4 -9 -6 3 -10 10 -10
16 0 14 7 11 14 -7z m-14 -82 c0 -15 -2 -15 -10 -2 -13 20 -13 33 0 25 6 -3
10 -14 10 -23z m68 -28 c-3 -14 -5 -12 -10 9 -3 19 -2 25 4 19 6 -6 8 -18 6
-28z m-103 16 c3 -5 1 -10 -4 -10 -6 0 -11 5 -11 10 0 6 2 10 4 10 3 0 8 -4
11 -10z m75 -52 c0 -38 -5 -34 -13 10 -4 21 -3 31 3 27 6 -3 10 -20 10 -37z
m-123 -20 c-3 -7 -5 -2 -5 12 0 14 2 19 5 13 2 -7 2 -19 0 -25z m93 -6 c0 -15
-2 -15 -10 -2 -13 20 -13 33 0 25 6 -3 10 -14 10 -23z m37 -64 c-3 -7 -5 -2
-5 12 0 14 2 19 5 13 2 -7 2 -19 0 -25z m-76 -15 c-10 -17 -10 -16 -11 3 0 23
13 41 18 25 2 -6 -1 -18 -7 -28z m-44 -35 c-3 -7 -5 -2 -5 12 0 14 2 19 5 13
2 -7 2 -19 0 -25z m88 2 c-4 -12 -9 -19 -12 -17 -3 3 -2 15 2 27 4 12 9 19 12
17 3 -3 2 -15 -2 -27z m-59 -65 c-4 -14 -11 -25 -16 -25 -5 0 -5 13 2 31 12
35 23 31 14 -6z m-33 -65 c-3 -11 -9 -20 -15 -20 -5 0 -4 9 2 20 6 11 12 20
14 20 2 0 2 -9 -1 -20z m20 -15 c-3 -9 -8 -14 -10 -11 -3 3 -2 9 2 15 9 16 15
13 8 -4z"/>
<path d="M2040 2930 c0 -5 7 -10 16 -10 8 0 12 5 9 10 -3 6 -10 10 -16 10 -5
0 -9 -4 -9 -10z"/>
<path d="M2998 3346 c-48 -13 -61 -21 -112 -65 -37 -33 -76 -116 -76 -161 0
-57 32 -95 138 -164 112 -72 132 -97 132 -162 0 -40 -5 -51 -34 -79 -89 -84
-236 -59 -267 45 -11 38 1 113 21 125 19 12 10 26 -12 20 -60 -19 -91 -91 -68
-159 39 -120 233 -148 349 -50 62 52 78 136 40 204 -14 25 -45 52 -92 81 -100
62 -157 119 -157 155 1 104 134 223 224 200 37 -9 38 -30 6 -128 -33 -99 -35
-114 -20 -123 18 -11 37 13 61 77 56 150 4 223 -133 184z"/>
<path d="M4026 3217 c-18 -20 -54 -78 -80 -131 -27 -55 -53 -96 -63 -99 -17
-4 -17 -5 0 -6 11 -1 16 -6 13 -13 -2 -7 -14 -43 -25 -79 -23 -73 -59 -125
-109 -160 -26 -17 -38 -20 -50 -12 -27 16 -25 49 5 109 24 47 26 56 13 65 -11
7 -21 1 -40 -23 -113 -146 -150 -179 -178 -161 -43 27 10 176 87 246 55 49 89
57 113 27 11 -13 17 -32 14 -43 -3 -13 0 -17 12 -15 21 4 28 44 11 65 -64 76
-201 2 -293 -157 -30 -51 -60 -89 -83 -105 -46 -31 -98 -33 -113 -6 -16 32
-12 116 11 185 l21 65 77 6 c111 9 117 13 24 14 -46 0 -83 4 -83 9 0 4 25 51
55 105 68 124 73 137 46 137 -27 0 -71 -61 -121 -167 -23 -48 -46 -83 -57 -86
-17 -4 -17 -5 1 -6 13 -1 16 -6 11 -18 -21 -50 -45 -153 -45 -196 0 -63 13
-85 54 -93 47 -8 99 11 143 52 19 19 36 34 37 34 1 0 3 -12 4 -27 6 -78 78
-81 153 -7 45 44 47 45 47 20 0 -37 19 -56 59 -56 45 0 85 22 122 67 l31 38 0
-38 c0 -53 15 -75 54 -83 53 -9 104 13 158 69 l48 50 0 -29 c0 -73 72 -100
122 -46 14 15 32 38 41 52 l17 24 0 -40 c0 -49 14 -64 58 -64 41 0 67 13 110
53 31 30 32 30 32 8 0 -12 13 -36 29 -52 24 -23 38 -29 73 -29 43 0 108 30
108 50 0 5 22 21 50 35 32 16 55 36 66 58 l15 32 -26 -33 c-22 -26 -72 -62
-87 -62 -2 0 -3 24 -4 53 0 28 -11 85 -24 125 -12 40 -20 86 -18 103 6 40 -23
36 -35 -6 -18 -61 -43 -101 -93 -151 -29 -28 -55 -60 -58 -72 -10 -30 -85 -92
-112 -92 -48 0 -49 48 -5 159 12 30 20 60 17 68 -11 29 -33 10 -69 -62 -56
-109 -92 -155 -121 -155 -14 0 -28 5 -32 12 -15 23 -5 97 21 163 22 55 25 69
14 76 -20 12 -36 -8 -69 -89 -34 -85 -69 -134 -115 -162 -42 -26 -91 -26 -105
-1 -16 32 -12 116 11 185 l21 65 77 6 c111 9 117 13 24 14 -46 0 -83 4 -83 9
0 4 25 51 55 105 30 54 57 107 60 117 11 34 -16 32 -49 -3z m634 -409 c0 -32
-3 -58 -6 -58 -25 0 -104 66 -104 86 0 7 19 39 42 70 l42 56 13 -48 c7 -27 13
-75 13 -106z m-42 -52 c17 -9 32 -21 32 -26 0 -17 -48 -42 -69 -35 -29 9 -61
53 -61 85 0 39 10 43 39 16 14 -13 41 -31 59 -40z"/>
<path d="M2693 2456 c-74 -17 -125 -42 -103 -50 8 -3 42 5 75 18 33 14 61 23
63 22 1 -2 -20 -59 -47 -127 -27 -68 -80 -215 -118 -326 -72 -213 -74 -234
-25 -241 22 -3 18 -15 83 219 l32 116 69 7 c119 11 223 59 264 122 25 37 22
114 -5 157 -45 73 -171 109 -288 83z m182 -26 c49 -24 75 -65 75 -120 0 -101
-98 -183 -247 -206 -27 -4 -43 -3 -43 4 0 16 77 242 100 295 24 55 47 60 115
27z"/>
<path d="M3429 2323 c-18 -21 -52 -79 -76 -130 -30 -63 -50 -93 -61 -93 -14 0
-15 -2 -3 -9 12 -8 11 -20 -7 -83 -25 -80 -58 -129 -118 -170 -85 -59 -164
-38 -164 43 0 34 3 39 23 39 39 0 143 56 171 92 31 41 37 112 10 122 -71 27
-186 -50 -235 -158 -22 -50 -25 -124 -4 -153 20 -28 77 -46 118 -38 45 10 110
49 140 85 14 16 27 30 29 30 2 0 4 -15 5 -34 1 -19 6 -44 13 -55 26 -49 115
-34 185 30 l43 40 7 -30 c10 -46 48 -71 107 -71 45 0 54 4 89 40 22 22 46 40
54 40 17 0 85 63 85 79 0 6 -16 -6 -35 -28 -19 -21 -44 -41 -54 -44 -16 -4
-19 4 -24 57 -4 33 -16 90 -27 126 -12 37 -19 77 -16 93 5 23 2 28 -11 25 -9
-2 -23 -24 -32 -53 -20 -59 -76 -142 -103 -151 -10 -3 -25 -20 -34 -37 -46
-91 -147 -146 -185 -101 -19 23 -14 114 11 188 l21 64 77 7 c112 9 118 13 25
14 -47 1 -83 5 -83 11 0 5 25 54 55 108 30 54 55 106 55 115 0 30 -18 27 -51
-10z m-243 -218 c9 -22 -13 -68 -44 -98 -35 -33 -126 -81 -130 -68 -9 26 65
133 112 162 38 23 55 24 62 4z m485 -145 c7 -41 8 -74 2 -83 -8 -15 -11 -15
-43 1 -18 9 -42 29 -53 43 l-19 27 43 61 c50 71 51 70 70 -49z m-36 -96 c31
-13 34 -17 25 -34 -16 -30 -57 -36 -88 -13 -33 24 -50 76 -33 97 10 12 16 10
37 -10 13 -14 40 -32 59 -40z"/>
<path d="M820 2205 l0 -85 -85 0 c-78 0 -85 -2 -85 -20 0 -18 7 -20 85 -20
l85 0 0 -85 c0 -84 0 -85 25 -85 24 0 24 2 27 83 l3 82 83 3 c74 3 82 5 82 22
0 18 -7 20 -85 20 l-85 0 0 85 c0 84 0 85 -25 85 -25 0 -25 -1 -25 -85z"/>
<path d="M3991 2164 c0 -11 3 -14 6 -6 3 7 2 16 -1 19 -3 4 -6 -2 -5 -13z"/>
</g>
</svg>
